Coordinates
version=1
nRows=6
nColumns=36
inDegrees=yes

Units are S.I. units (second, meters, Newtons, ...)
If the header above contains a line with 'inDegrees', this indicates whether rotational values are in degrees (yes) or radians (no).

endheader
time	pelvis_tilt	pelvis_list	pelvis_rotation	pelvis_tx	pelvis_ty	pelvis_tz	hip_flexion_r	hip_adduction_r	hip_rotation_r	knee_angle_r	knee_angle_r_beta	ankle_angle_r	subtalar_angle_r	mtp_angle_r	hip_flexion_l	hip_adduction_l	hip_rotation_l	knee_angle_l	knee_angle_l_beta	ankle_angle_l	subtalar_angle_l	mtp_angle_l	lumbar_extension	lumbar_bending	lumbar_rotation	arm_flex_r	arm_add_r	arm_rot_r	elbow_flex_r	pro_sup_r	arm_flex_l	arm_add_l	arm_rot_l	elbow_flex_l	pro_sup_l
      1.66666670	     -2.37785163	     -0.17552112	     -0.06984567	     -0.92528324	      1.26867064	     -0.01310545	      9.77110650	      0.83768131	     -0.67886535	     13.69738845	      0.23906453	     -0.51097903	    -30.28461298	     -7.49999987	     10.48662666	     -1.75797648	      7.85519654	     17.41359395	      0.30392455	      9.40162015	    -13.94748656	     -7.49999987	    -15.63188870	     -0.20821175	      1.70812307	     -1.15631256	     -8.28123466	     -0.33436438	     29.24162612	     89.21559257	     -2.13483905	     -6.73542551	     -2.60968880	     29.19103615	     96.50016855
      1.67083330	     -2.45120725	     -0.17865201	     -0.00276764	     -0.92248085	      1.26939453	     -0.01147909	      9.77531618	      0.86075907	     -0.65694194	     13.65389210	      0.23830537	     -0.62331926	    -30.39918434	     -7.49999987	     10.64755631	     -1.77993879	      7.81310053	     17.63697278	      0.30782325	      9.43228207	    -13.90681355	     -7.49999987	    -15.42275698	     -0.20276736	      1.65571112	     -1.26242871	     -8.26476852	     -0.13897516	     29.10999077	     88.13923254	     -2.21022390	     -6.83897748	     -2.11031438	     28.97799394	     94.01280820
      1.67500000	     -2.47773297	     -0.20022048	      0.08323458	     -0.92285260	      1.26826356	     -0.01133980	      9.76348479	      0.88891585	     -0.79880663	     13.65872692	      0.23838976	     -0.26575815	    -30.07537922	     -7.49999987	     10.77461336	     -1.82539969	      7.84496188	     17.86835545	      0.31186163	      9.45595499	    -13.91417412	     -7.49999987	    -15.34094717	     -0.18288310	      1.60755182	     -1.35308372	     -8.27339328	     -0.04332793	     29.06453211	     88.76047367	     -2.22201498	     -6.92073422	     -2.12861272	     28.85414267	     95.58729666
      1.67916670	     -2.62914615	     -0.21077484	      0.08157675	     -0.92316759	      1.26941860	     -0.01141541	      9.90573683	      0.90656673	     -0.80770566	     13.66101456	      0.23842968	     -0.24702707	    -30.17067525	     -7.49999987	     11.01885698	     -1.86332976	      7.81230911	     18.08917923	      0.31571574	      9.38185986	    -14.04127071	     -7.49999987	    -15.06512400	     -0.19204915	      1.59645223	     -1.41069524	     -8.26722416	      0.01436158	     28.86785148	     87.42954604	     -2.32628894	     -6.94493098	     -2.14871045	     28.65283831	     94.17795756
      1.68333330	     -2.83715025	     -0.21677592	      0.13907444	     -0.92438505	      1.26794154	     -0.01171619	     10.17576155	      0.93105664	     -0.75110608	     13.69539751	      0.23902978	     -0.06202759	    -30.06477298	     -7.49999987	     11.37247428	     -1.87885850	      7.83101503	     18.29523364	      0.31931206	      9.42020367	    -14.05381081	     -7.49999987	    -14.90404324	     -0.22179893	      1.50315065	     -1.40840342	     -8.20002637	     -0.04737040	     28.87250583	     88.74912141	     -2.37726585	     -6.95971698	     -2.68007892	     28.67849125	     96.23421822
      1.68750000	     -3.18588592	     -0.25026187	      0.23496391	     -0.92357616	      1.26618270	     -0.01154864	     10.64129520	      0.96255983	     -0.69105088	     13.84519591	      0.24164425	     -0.07793442	    -30.32437093	     -7.49999987	     11.96671233	     -1.90732798	      7.88577235	     18.67004657	      0.32585378	      9.57867536	    -14.04594928	     -7.49999987	    -14.43879281	     -0.18877603	      1.52565966	     -1.51718057	     -8.15501781	      0.00531790	     28.66339916	     87.04599347	     -2.38623759	     -6.94532283	     -2.59457720	     28.47329788	     94.44487352
